<svg xmlns="http://www.w3.org/2000/svg" width="30" height="30" viewBox="0 0 30 30"><path d="M28.772,5.46H5.309L4.957,1.221A1.273,1.273,0,0,0,3.733,0h-2.5A1.29,1.29,0,0,0,0,1.343,1.29,1.29,0,0,0,1.231,2.685H2.608c.75,9.15-1.19-14.495,1.418,17.225a5.3,5.3,0,0,0,1.776,3.5C3.891,26.074,5.637,30,8.743,30c2.578,0,4.395-2.807,3.51-5.46H19c-.885,2.653.932,5.46,3.51,5.46a3.916,3.916,0,0,0,3.733-4.073,3.92,3.92,0,0,0-3.733-4.073H8.749a2.287,2.287,0,0,1-2.1-1.515l19.689-1.26a1.269,1.269,0,0,0,1.125-1.017l2.5-10.927a1.322,1.322,0,0,0-1.19-1.675ZM8.743,27.315a1.393,1.393,0,0,1,0-2.775,1.393,1.393,0,0,1,0,2.775Zm13.771,0a1.393,1.393,0,1,1,1.272-1.387A1.332,1.332,0,0,1,22.513,27.315Zm2.778-10.863L6.317,17.666,5.532,8.152H27.189Z" fill="#363636"/></svg>