<svg xmlns="http://www.w3.org/2000/svg" width="30" height="29" viewBox="0 0 30 29"><g transform="translate(1.8 1.745)"><g transform="translate(-1.8 -1.745)"><path d="M55.664,25.276h3.612a6.1,6.1,0,1,1,0,12.2H55.664Zm3.612,9.953a3.853,3.853,0,1,0,0-7.705H57.912v7.705Z" transform="translate(-35.377 -16.909)" fill="#363636"/><path d="M5.851,25.276H9.463v12.2H5.851a6.1,6.1,0,0,1,0-12.2Zm1.364,2.248H5.851a3.853,3.853,0,0,0,0,7.705H7.215Z" transform="translate(0.25 -16.909)" fill="#363636"/><path d="M30.951,10.034H28.743V9.161a7.317,7.317,0,0,0-14.631,0v.872H11.9V9.161a9.524,9.524,0,0,1,19.046,0Z" transform="translate(-6.428 0.25)" fill="#363636"/><path d="M43.915,53.827H40.862V51.579h3.053a2.368,2.368,0,0,0,2.365-2.365V45.724h2.248v3.489A4.618,4.618,0,0,1,43.915,53.827Z" transform="translate(-24.068 -27.075)" fill="#363636"/><path d="M2.372-1A3.372,3.372,0,1,1-1,2.372,3.376,3.376,0,0,1,2.372-1Zm0,4.5A1.124,1.124,0,1,0,1.248,2.372,1.125,1.125,0,0,0,2.372,3.5Z" transform="translate(13.124 23.256)" fill="#363636"/></g></g></svg>