<svg xmlns="http://www.w3.org/2000/svg" width="30" height="26.25" viewBox="0 0 30 26.25"><path d="M7.338,1.248A8.959,8.959,0,0,1,13.7,3.956l.3.3.3-.305a8.971,8.971,0,0,1,6.364-2.707,8.047,8.047,0,0,1,5.261,1.906,8.606,8.606,0,0,1,3.066,6.221,8.728,8.728,0,0,1-2.458,6.508L16,26.652a2.8,2.8,0,0,1-4.012,0L1.463,15.882A8.731,8.731,0,0,1-.99,9.373,8.609,8.609,0,0,1,2.075,3.154,8.05,8.05,0,0,1,7.338,1.248ZM14,7.293,12.155,5.409A6.786,6.786,0,0,0,7.338,3.348a5.909,5.909,0,0,0-3.864,1.4A6.543,6.543,0,0,0,1.15,9.473,6.646,6.646,0,0,0,3.011,14.43L13.538,25.2a.63.63,0,0,0,.917,0L24.983,14.43a6.643,6.643,0,0,0,1.865-4.956,6.54,6.54,0,0,0-2.325-4.73,5.906,5.906,0,0,0-3.861-1.4,6.8,6.8,0,0,0-4.818,2.061Z" transform="translate(1.001 -1.248)" fill="#363636"/></svg>