<svg xmlns="http://www.w3.org/2000/svg" width="30" height="30" viewBox="0 0 30 30"><path d="M229.7,6.107A6.958,6.958,0,0,0,226.087.361a1.591,1.591,0,0,0-.765-.217c-.648,0-1.084.523-1.085,1.3,0,.254,0,.509,0,.763,0,1.1,0,2.244.007,3.366,0,.2-.069.261-.257.371a2.545,2.545,0,0,1-1.278.38,2.362,2.362,0,0,1-1.253-.388.167.167,0,0,0-.055-.021c-.168-.036-.222-.117-.22-.332.013-1.531.009-3.065,0-4.229A1.131,1.131,0,0,0,220.078.14a1.371,1.371,0,0,0-.643.169A6.986,6.986,0,0,0,218.69,12.2a.448.448,0,0,1,.222.426c-.007,1.814-.006,3.658-.005,5.441v8.207c0,.034,0,.067,0,.1a3.807,3.807,0,0,0,3.793,3.735,3.855,3.855,0,0,0,.944-.119,3.737,3.737,0,0,0,2.082-1.361,3.95,3.95,0,0,0,.789-2.412c0-4.411,0-8.97,0-13.549a.5.5,0,0,1,.24-.483A6.928,6.928,0,0,0,229.7,6.107m-5.465,5.738c.005,4.526.005,9.022,0,14.381a1.525,1.525,0,1,1-3.045.168c-.007-.133-.006-.271,0-.4,0-.053,0-.105,0-.158q0-1.649,0-3.3c0-3.447,0-7.011.01-10.517a1.491,1.491,0,0,0-.841-1.456,4.588,4.588,0,0,1-2.238-2.979,4.718,4.718,0,0,1,.674-3.721c.032-.047.068-.092.116-.15V4.2q0,.349,0,.7c0,.546,0,1.111,0,1.665a1.1,1.1,0,0,0,.713,1.088l.094.039c.836.348,1.7.707,2.568,1.015a1.286,1.286,0,0,0,.42.066,1.411,1.411,0,0,0,.464-.076c.712-.254,1.424-.545,2.111-.827l.489-.2a1.128,1.128,0,0,0,.752-1.131q0-.926,0-1.852V3.712a4.285,4.285,0,0,1,.849,2.014,4.649,4.649,0,0,1-2.434,4.92,1.26,1.26,0,0,0-.7,1.2" transform="translate(-199.71 -0.13)" fill="#a71b61"/><path d="M71.577,46.715c.058-.052.117-.1.177-.145-.06.045-.119.093-.177.145" transform="translate(-66.266 -43.117)" fill="#363636"/><path d="M76.457,42.538a2.2,2.2,0,0,1,.386-.188,2.254,2.254,0,0,0-.386.188" transform="translate(-70.784 -39.21)" fill="#363636"/><path d="M87.247,363.59q.091.013.183.018-.092,0-.183-.018" transform="translate(-80.774 -336.631)" fill="#363636"/><path d="M191.291,1h0" transform="translate(-176.771 -0.926)" fill="#363636"/><path d="M197.775,1.017c-.121,0-.242,0-.362-.005.121,0,.242,0,.362.005" transform="translate(-182.766 -0.937)" fill="#363636"/><path d="M195.834,1h0" transform="translate(-181.187 -0.93)" fill="#363636"/><path d="M191.807,29.81h.567c-.187,0-.375,0-.567,0" transform="translate(-177.576 -27.6)" fill="#363636"/><path d="M202.092,403.591h0" transform="translate(-187.098 -373.665)" fill="#363636"/><path d="M194.018,403.54q.3,0,.6,0c-.2,0-.4,0-.6,0" transform="translate(-179.623 -373.619)" fill="#363636"/><path d="M81.26,30.852q-.3,0-.6,0c.2,0,.4,0,.6,0m.012,0h0M81.064,3.137H80.5c.192,0,.38,0,.567,0M80.913,1c.121,0,.242,0,.362.005-.121,0-.242,0-.362-.005m-.127,0h0m-.067,0h0m-7.8,26.9q-.091,0-.183-.018.09.013.183.018m-.6-23.837a2.2,2.2,0,0,0-.386.188,2.255,2.255,0,0,1,.386-.188m-.571.313c-.06.044-.119.093-.177.145.058-.052.117-.1.177-.145" transform="translate(-66.266 -0.926)" fill="#363636"/><path d="M18.348,27.829a1.09,1.09,0,0,0-.616-.971,1.17,1.17,0,0,0-.545-.146.886.886,0,0,0-.574.208,2.72,2.72,0,0,0-.45.525c-.059.082-.12.166-.186.251H13.932l-.051-.653c-.045-.562-.088-1.12-.131-1.677a1.116,1.116,0,0,0-.858-1.091,10.836,10.836,0,0,1-2.949-1.22,1.13,1.13,0,0,0-.579-.17,1.186,1.186,0,0,0-.744.288c-.1.081-.2.167-.3.25l-.137.119-1.026.876-.321.274L5.681,23.54l-.376-.374.4-.463c.35-.408.713-.83,1.07-1.253a1.145,1.145,0,0,0,.119-1.492,10.027,10.027,0,0,1-1.136-2.732,1.151,1.151,0,0,0-1.169-.974c-.546-.042-1.091-.087-1.64-.13L2.3,16.068V13.925l.643-.051,1.616-.129a1.173,1.173,0,0,0,1.2-1.014,9.863,9.863,0,0,1,1.081-2.613A1.187,1.187,0,0,0,6.7,8.463c-.345-.406-.692-.811-1.028-1.2L5.3,6.816l.659-.657.871-.868.467.4c.409.351.831.713,1.253,1.069a1.259,1.259,0,0,0,.816.348,1.3,1.3,0,0,0,.676-.216,9.942,9.942,0,0,1,2.731-1.139,1.157,1.157,0,0,0,.985-1.2c.039-.538.082-1.063.128-1.62q.026-.325.053-.654h.653c.167,0,.3,0,.433-.005A1.142,1.142,0,0,0,16.146,1.14,1.144,1.144,0,0,0,15.012.006C14.834,0,14.651,0,14.453,0s-.388,0-.611.006a2.207,2.207,0,0,0-2.18,2.066l-.013.188c-.031.427-.064.869-.118,1.3a.367.367,0,0,1-.187.229c-.555.248-1.121.481-1.684.695a.311.311,0,0,1-.105.016.336.336,0,0,1-.189-.05c-.249-.2-.493-.406-.73-.611-.126-.11-.257-.222-.387-.332a2.294,2.294,0,0,0-1.481-.569,2.256,2.256,0,0,0-1.6.689c-.494.485-1.01,1-1.532,1.531a2.287,2.287,0,0,0-.7,1.526,2.293,2.293,0,0,0,.582,1.573c.1.121.208.242.309.359.206.237.418.482.614.732A.369.369,0,0,1,4.5,9.64c-.119.313-.25.628-.376.933-.108.258-.218.525-.322.79a.228.228,0,0,1-.244.177c-.319.018-.642.045-.955.071-.177.016-.361.031-.54.044A2.2,2.2,0,0,0,.01,13.817c-.013.808-.013,1.6,0,2.366a2.2,2.2,0,0,0,2.057,2.155c.18.013.363.029.54.044.312.026.636.053.956.07.132.007.183.047.237.187.2.511.438,1.111.7,1.69a.247.247,0,0,1-.045.327c-.335.374-.657.756-.956,1.112a2.192,2.192,0,0,0,.1,3.024c.524.541,1.063,1.08,1.6,1.6a2.248,2.248,0,0,0,1.559.658A2.282,2.282,0,0,0,8.231,26.5c.438-.365.792-.668,1.114-.956a.262.262,0,0,1,.177-.086.368.368,0,0,1,.151.041c.591.266,1.186.5,1.691.7.137.053.177.1.183.238.019.351.05.707.079,1.052q.021.238.04.476a2.2,2.2,0,0,0,2.086,2.018c.415.013.837.019,1.255.019s.833-.006,1.248-.018a2.191,2.191,0,0,0,1.511-.7,2.056,2.056,0,0,0,.582-1.454M9.565,22.98a.976.976,0,0,0-.192-.022.948.948,0,0,1,.192.022m-.2-.022h.01a.931.931,0,0,0-.19.017.916.916,0,0,1,.18-.018M9.095,23a1.135,1.135,0,0,0-.132.048A1.014,1.014,0,0,1,9.095,23m-.261.115a1.5,1.5,0,0,0-.169.117,1.408,1.408,0,0,1,.169-.117m5.4-20.9H14.8c-.187,0-.375,0-.567,0M14.647.075h0M6.059,3.14a2.252,2.252,0,0,0-.386.188,2.2,2.2,0,0,1,.386-.188m-.571.313c-.06.045-.119.093-.177.145.058-.052.117-.1.177-.145m.985,23.506q.091.013.183.018-.092,0-.183-.018M14.4,29.921q.3,0,.6,0c-.2,0-.4,0-.6,0" transform="translate(0)" fill="#363636"/><path d="M229.07,269.765a1.689,1.689,0,0,0-.174-.009c-.059,0-.119,0-.179.009a1.7,1.7,0,0,1,.353,0" transform="translate(-211.747 -249.755)" fill="#363636"/><path d="M228.717,269.765c.059-.006.119-.009.179-.009a1.689,1.689,0,0,1,.174.009,1.7,1.7,0,0,0-.353,0" transform="translate(-211.747 -249.755)" fill="#363636"/><path d="M110.692,114.646a1.533,1.533,0,0,0-.358-.04,1.812,1.812,0,0,0-.488.067,6.08,6.08,0,0,1-1.689.251,5.183,5.183,0,0,1-4.817-3.259,5.154,5.154,0,0,1,.646-5.15,5.306,5.306,0,0,1,3.343-2.029,1.135,1.135,0,0,0,.93-1,1.085,1.085,0,0,0-.707-1.161,1.666,1.666,0,0,0-.484-.068,2,2,0,0,0-.4.04,7.473,7.473,0,0,0-4.639,3.034,7.674,7.674,0,0,0-1.329,5.282,7.585,7.585,0,0,0,7.356,6.592h.085a7.572,7.572,0,0,0,2.516-.417,1.131,1.131,0,0,0,.8-1.1,1.059,1.059,0,0,0-.772-1.046m-.184.043a1.693,1.693,0,0,0-.174-.009c-.059,0-.119,0-.179.009a1.7,1.7,0,0,1,.353,0m-.453,2.208c.2-.051.39-.11.582-.175-.192.066-.386.124-.582.175" transform="translate(-93.185 -94.678)" fill="#363636"/></svg>